<svg width="1024" height="1024" viewBox="0 0 1024 1024" fill="none" xmlns="http://www.w3.org/2000/svg">
  <!-- macOS 風格圓角矩形背景，青色漸層（源自 icon.json 的 srgb:0,0.569,0.575） -->
  <defs>
    <linearGradient id="bg-gradient" x1="512" y1="0" x2="512" y2="1024" gradientUnits="userSpaceOnUse">
      <stop offset="0" stop-color="#00b0b3"/>
      <stop offset="1" stop-color="#007577"/>
    </linearGradient>
  </defs>
  <rect width="1024" height="1024" rx="224" ry="224" fill="url(#bg-gradient)"/>

  <!-- 前景圖示：機器人頭 + 設備連接，縮放 82% 置中，白色 -->
  <g transform="translate(512, 512) scale(0.82) translate(-513, -518.5)">
    <!-- 機器人頭部（天線 + 頭 + 眼睛） -->
    <path d="M116 541C121.414 476.604 141.119 417.324 175.117 363.159C209.115 308.994 254.373 265.963 310.891 234.066L244.123 118.514C240.514 113.098 239.611 107.381 241.416 101.362C243.22 95.344 247.13 90.8302 253.145 87.8211C257.958 84.8119 263.371 84.2101 269.386 86.0156C275.402 87.8211 280.214 91.4321 283.823 96.8485L350.591 212.4C402.321 190.734 456.458 179.901 513 179.901C569.542 179.901 623.679 190.734 675.409 212.4L742.177 96.8485C745.786 91.4321 750.598 87.8211 756.614 86.0156C762.629 84.2101 768.042 84.8119 772.855 87.8211C778.87 90.8302 782.78 95.344 784.584 101.362C786.389 107.381 785.486 113.098 781.877 118.514L715.109 234.066C771.652 265.963 816.909 308.994 850.883 363.159C884.857 417.324 904.562 476.604 910 541H116ZM332.545 441.698C345.177 441.698 355.86 437.329 364.594 428.59C373.328 419.851 377.683 409.175 377.659 396.561C377.635 383.946 373.268 373.258 364.558 364.495C355.848 355.732 345.177 351.375 332.545 351.423C319.914 351.471 309.231 355.841 300.497 364.531C291.763 373.222 287.408 383.898 287.432 396.561C287.456 409.223 291.823 419.912 300.533 428.626C309.243 437.341 319.914 441.698 332.545 441.698ZM693.455 441.698C706.086 441.698 716.769 437.329 725.503 428.59C734.237 419.851 738.592 409.175 738.568 396.561C738.544 383.946 734.177 373.258 725.467 364.495C716.757 355.732 706.086 351.375 693.455 351.423C680.823 351.471 670.14 355.841 661.406 364.531C652.672 373.222 648.317 383.898 648.341 396.561C648.365 409.223 652.732 419.912 661.442 428.626C670.152 437.341 680.823 441.698 693.455 441.698Z" fill="white"/>
    <!-- 左側設備（空心方塊） -->
    <path d="M282.182 745.728C268.608 745.728 255.589 751.12 245.991 760.719C236.392 770.317 231 783.336 231 796.91V899.274C231 912.848 236.392 925.866 245.991 935.465C255.589 945.063 268.608 950.456 282.182 950.456H384.546C398.12 950.456 411.138 945.063 420.737 935.465C430.335 925.866 435.728 912.848 435.728 899.274V796.91C435.728 783.336 430.335 770.317 420.737 760.719C411.138 751.12 398.12 745.728 384.546 745.728H282.182ZM282.182 796.91H384.546V899.274H282.182V796.91Z" fill="white"/>
    <!-- 右側設備（空心方塊） -->
    <path d="M640.454 745.728C626.88 745.728 613.862 751.12 604.263 760.719C594.665 770.317 589.272 783.336 589.272 796.91V899.274C589.272 912.848 594.665 925.866 604.263 935.465C613.862 945.063 626.88 950.456 640.454 950.456H742.818C756.392 950.456 769.411 945.063 779.009 935.465C788.608 925.866 794 912.848 794 899.274V796.91C794 783.336 788.608 770.317 779.009 760.719C769.411 751.12 756.392 745.728 742.818 745.728H640.454ZM640.454 796.91H742.818V899.274H640.454V796.91Z" fill="white"/>
    <!-- 設備連接路徑 -->
    <path d="M486.909 541V643.364H358.955C345.38 643.364 332.362 648.756 322.764 658.355C313.165 667.953 307.773 680.971 307.773 694.546V745.728H358.955V694.546H666.046V745.728H717.228V694.546C717.228 680.971 711.836 667.953 702.237 658.355C692.639 648.756 679.62 643.364 666.046 643.364H538.091V541H486.909Z" fill="white"/>
  </g>
</svg>
