<svg width="1024" height="1024" viewBox="0 0 1024 1024" fill="none" xmlns="http://www.w3.org/2000/svg">
  <!-- macOS 風格圓角矩形背景，青色漸層（源自 icon.json 的 srgb:0,0.569,0.575） -->
  <defs>
    <linearGradient id="bg-gradient" x1="512" y1="0" x2="512" y2="1024" gradientUnits="userSpaceOnUse">
      <stop offset="0" stop-color="#00b0b3"/>
      <stop offset="1" stop-color="#007577"/>
    </linearGradient>
  </defs>
  <rect width="1024" height="1024" rx="224" ry="224" fill="url(#bg-gradient)"/>

  <!-- 前景圖示：機器人頭 + 設備連接，縮放 82% 置中，白色 -->
  <g transform="translate(512, 512) scale(0.82) translate(-512.33, -512.36)">
    <!-- 機器人頭部（天線 + 頭 + 眼睛） -->
    <path d="M159 532.84C163.818 475.528 181.356 422.768 211.614 374.561C241.872 326.355 282.152 288.057 332.453 259.669L273.029 156.828C269.817 152.007 269.014 146.919 270.62 141.562C272.226 136.206 275.706 132.189 281.059 129.511C285.342 126.833 290.16 126.297 295.514 127.904C300.867 129.511 305.15 132.725 308.362 137.545L367.786 240.386C413.826 221.103 462.007 211.462 512.33 211.462C562.653 211.462 610.834 221.103 656.874 240.386L716.298 137.545C719.51 132.725 723.793 129.511 729.146 127.904C734.5 126.297 739.318 126.833 743.601 129.511C748.954 132.189 752.434 136.206 754.04 141.562C755.646 146.919 754.843 152.007 751.631 156.828L692.207 259.669C742.53 288.057 782.809 326.355 813.046 374.561C843.282 422.768 860.82 475.528 865.66 532.84H159ZM351.725 444.461C362.968 444.461 372.476 440.572 380.249 432.795C388.022 425.018 391.898 415.516 391.877 404.289C391.855 393.062 387.969 383.549 380.217 375.751C372.465 367.952 362.968 364.074 351.725 364.117C340.483 364.159 330.975 368.048 323.202 375.783C315.429 383.517 311.553 393.019 311.574 404.289C311.596 415.558 315.482 425.071 323.234 432.827C330.986 440.583 340.483 444.461 351.725 444.461ZM672.935 444.461C684.177 444.461 693.685 440.572 701.458 432.795C709.231 425.018 713.107 415.516 713.086 404.289C713.064 393.062 709.178 383.549 701.426 375.751C693.674 367.952 684.177 364.074 672.935 364.117C661.692 364.159 652.184 368.048 644.411 375.783C636.638 383.517 632.762 393.019 632.783 404.289C632.805 415.558 636.691 425.071 644.443 432.827C652.195 440.583 661.692 444.461 672.935 444.461Z" fill="white"/>
    <!-- 左側設備（空心方塊） -->
    <path d="M306.902 715.048C294.821 715.048 283.234 719.847 274.692 728.39C266.149 736.932 261.35 748.519 261.35 760.6V851.703C261.35 863.785 266.149 875.371 274.692 883.914C283.234 892.456 294.821 897.255 306.902 897.255H398.006C410.087 897.255 421.673 892.456 430.216 883.914C438.758 875.371 443.558 863.785 443.558 851.703V760.6C443.558 748.519 438.758 736.932 430.216 728.39C421.673 719.847 410.087 715.048 398.006 715.048H306.902ZM306.902 760.6H398.006V851.703H306.902V760.6Z" fill="white"/>
    <!-- 右側設備（空心方塊） -->
    <path d="M625.764 715.048C613.683 715.048 602.097 719.847 593.554 728.39C585.012 736.932 580.212 748.519 580.212 760.6V851.703C580.212 863.785 585.012 875.371 593.554 883.914C602.097 892.456 613.683 897.255 625.764 897.255H716.868C728.949 897.255 740.536 892.456 749.078 883.914C757.621 875.371 762.42 863.785 762.42 851.703V760.6C762.42 748.519 757.621 736.932 749.078 728.39C740.536 719.847 728.949 715.048 716.868 715.048H625.764ZM625.764 760.6H716.868V851.703H625.764V760.6Z" fill="white"/>
    <!-- 設備連接路徑 -->
    <path d="M489.109 532.84V623.944H375.23C363.149 623.944 351.562 628.743 343.02 637.286C334.477 645.828 329.678 657.414 329.678 669.496V715.047H375.23V669.496H648.541V715.047H694.093V669.496C694.093 657.414 689.294 645.828 680.751 637.286C672.208 628.743 660.622 623.944 648.541 623.944H534.661V532.84H489.109Z" fill="white"/>
  </g>
</svg>
